<svg xmlns="http://www.w3.org/2000/svg" viewBox="0 0 13.94 13.94">
  <defs>
    <style>
      .cls-1 {
        fill: #5c5c5c;
      }
    </style>
  </defs>
  <g id="thin-_calendar_m" transform="translate(-336.626 -745.06)">
    <path id="路径_14" data-name="路径 14" class="cls-1" d="M12.255,0H1.684A1.707,1.707,0,0,0,0,1.684V12.255A1.707,1.707,0,0,0,1.684,13.94H12.255a1.707,1.707,0,0,0,1.684-1.684V1.684A1.707,1.707,0,0,0,12.255,0ZM1.684.581H12.255a1.118,1.118,0,0,1,1.1,1.1v1.8H.581v-1.8A1.118,1.118,0,0,1,1.684.581ZM12.255,13.359H1.684a1.118,1.118,0,0,1-1.1-1.1V4.066H13.359v8.189a1.118,1.118,0,0,1-1.1,1.1Z" transform="translate(336.626 745.06)"/>
    <path id="路径_15" data-name="路径 15" class="cls-1" d="M248.4,132.847h.058a.29.29,0,0,0,0-.581H248.4a.29.29,0,0,0,0,.581Zm5.227,0a.29.29,0,1,0,0-.581h-.058a.267.267,0,0,0-.261.29A.317.317,0,0,0,253.624,132.847Zm-.1,3.445-1.22.465a.291.291,0,1,0,.207.543l.826-.315v4.748a.29.29,0,0,0,.581,0v-5.169a.29.29,0,0,0-.394-.272Zm-3.948,2.5,1.663-2.044a.29.29,0,0,0-.225-.473h-3.078a.29.29,0,0,0,0,.581H250.4l-1.647,2.024a.29.29,0,0,0-.032.318.276.276,0,0,0,.279.155,2.169,2.169,0,0,1,1.514.423.941.941,0,0,1,.208.818,1,1,0,0,1-.87.91,1.954,1.954,0,0,1-1.9-.723.291.291,0,1,0-.508.283,2.46,2.46,0,0,0,2.082,1.051,2.38,2.38,0,0,0,.433-.039,1.576,1.576,0,0,0,1.338-1.4,1.5,1.5,0,0,0-.362-1.295A2.22,2.22,0,0,0,249.573,138.792Z" transform="translate(92.585 614.594)"/>
  </g>
</svg>
