<svg xmlns="http://www.w3.org/2000/svg" viewBox="0 0 8.983 13.94">
  <defs>
    <style>
      .cls-1 {
        fill: #707070;
      }
    </style>
  </defs>
  <path id="thin-_flag" class="cls-1" d="M222.225,20.685c-1.639-1.622-3.149-1.134-4.609-.661a5.1,5.1,0,0,1-3.721.192V19.9a.281.281,0,1,0-.561,0V33.2a.281.281,0,1,0,.561,0V27.426a6.513,6.513,0,0,0,1.115.1,15.588,15.588,0,0,0,2.474-.266,7.833,7.833,0,0,1,4.451.125.263.263,0,0,0,.26-.032.309.309,0,0,0,.122-.25v-6.2a.314.314,0,0,0-.091-.223Zm-.47,6a8.97,8.97,0,0,0-4.355-.016,9.948,9.948,0,0,1-3.505.159V20.867a5.73,5.73,0,0,0,3.883-.264c1.4-.451,2.611-.843,3.977.44Z" transform="translate(-213.333 -19.567)"/>
</svg>
