<svg xmlns="http://www.w3.org/2000/svg" viewBox="0 0 11.794 11.172">
  <defs>
    <style>
      .cls-1 {
        fill: #707070;
      }
    </style>
  </defs>
  <path id="database" class="cls-1" d="M11.215,1.049A4.652,4.652,0,0,0,9.931.517,15.739,15.739,0,0,0,5.9.051,15.767,15.767,0,0,0,1.863.517a4.636,4.636,0,0,0-1.284.533A1.065,1.065,0,0,0,0,1.913V9.362a1.064,1.064,0,0,0,.579.863,4.652,4.652,0,0,0,1.284.533,15.739,15.739,0,0,0,4.034.466,15.737,15.737,0,0,0,4.034-.466,4.636,4.636,0,0,0,1.284-.533,1.064,1.064,0,0,0,.579-.863V1.912a1.064,1.064,0,0,0-.579-.863ZM2.03,1.115A15.126,15.126,0,0,1,5.9.671a15.123,15.123,0,0,1,3.867.443c1.114.31,1.409.657,1.409.8s-.294.489-1.409.8A15.126,15.126,0,0,1,5.9,3.154,15.123,15.123,0,0,1,2.03,2.711C.916,2.4.621,2.054.621,1.913s.294-.489,1.409-.8ZM9.764,10.16A15.126,15.126,0,0,1,5.9,10.6,15.123,15.123,0,0,1,2.03,10.16C.916,9.85.621,9.5.621,9.362V7.769a4.787,4.787,0,0,0,1.243.507A15.739,15.739,0,0,0,5.9,8.741a15.737,15.737,0,0,0,4.034-.466,4.777,4.777,0,0,0,1.243-.507V9.361c0,.141-.294.489-1.409.8Zm0-2.483A15.126,15.126,0,0,1,5.9,8.12,15.123,15.123,0,0,1,2.03,7.677C.916,7.367.621,7.02.621,6.879V5.286a4.787,4.787,0,0,0,1.243.507A15.739,15.739,0,0,0,5.9,6.258a15.767,15.767,0,0,0,4.034-.466,4.777,4.777,0,0,0,1.243-.507V6.879C11.173,7.02,10.879,7.367,9.764,7.677Zm0-2.483A15.126,15.126,0,0,1,5.9,5.637,15.123,15.123,0,0,1,2.03,5.194C.916,4.884.621,4.537.621,4.4V2.8a4.787,4.787,0,0,0,1.243.507A15.739,15.739,0,0,0,5.9,3.775a15.767,15.767,0,0,0,4.034-.466A4.777,4.777,0,0,0,11.173,2.8V4.4C11.173,4.537,10.879,4.884,9.764,5.194Z" transform="translate(0 -0.051)"/>
</svg>
