<svg xmlns="http://www.w3.org/2000/svg" viewBox="0 0 18 18">
  <defs>
    <style>
      .cls-1 {
        fill: #f54b5e;
      }
    </style>
  </defs>
  <g id="cog" transform="translate(-15.169 -15.169)">
    <path id="路径_653" data-name="路径 653" class="cls-1" d="M21.973,33.17a.457.457,0,0,1-.116-.015,9.231,9.231,0,0,1-2.378-.982.464.464,0,0,1-.173-.622,1.856,1.856,0,0,0-2.517-2.517.464.464,0,0,1-.622-.173,9.245,9.245,0,0,1-.982-2.378.464.464,0,0,1,.3-.555,1.854,1.854,0,0,0,0-3.516.464.464,0,0,1-.3-.555,9.231,9.231,0,0,1,.982-2.378.464.464,0,0,1,.622-.173,1.856,1.856,0,0,0,2.517-2.517.464.464,0,0,1,.173-.622,9.245,9.245,0,0,1,2.378-.982.464.464,0,0,1,.555.3,1.854,1.854,0,0,0,3.516,0,.465.465,0,0,1,.555-.3,9.231,9.231,0,0,1,2.378.982.464.464,0,0,1,.173.622,1.856,1.856,0,0,0,2.517,2.517.464.464,0,0,1,.622.173,9.245,9.245,0,0,1,.982,2.378.464.464,0,0,1-.3.555,1.854,1.854,0,0,0,0,3.516.464.464,0,0,1,.3.555,9.231,9.231,0,0,1-.982,2.378.464.464,0,0,1-.622.173,1.856,1.856,0,0,0-2.517,2.517.464.464,0,0,1-.173.622,9.245,9.245,0,0,1-2.378.982.464.464,0,0,1-.555-.3,1.854,1.854,0,0,0-3.516,0,.465.465,0,0,1-.44.316Zm2.2-2.506a2.783,2.783,0,0,1,2.463,1.486,8.366,8.366,0,0,0,1.4-.577,2.784,2.784,0,0,1,3.54-3.54,8.257,8.257,0,0,0,.577-1.4,2.784,2.784,0,0,1,0-4.925,8.366,8.366,0,0,0-.577-1.4,2.784,2.784,0,0,1-3.54-3.54,8.257,8.257,0,0,0-1.4-.577,2.784,2.784,0,0,1-4.925,0,8.288,8.288,0,0,0-1.4.577,2.784,2.784,0,0,1-3.54,3.54,8.257,8.257,0,0,0-.577,1.4,2.784,2.784,0,0,1,0,4.925,8.288,8.288,0,0,0,.577,1.4,2.784,2.784,0,0,1,3.54,3.54,8.257,8.257,0,0,0,1.4.577,2.781,2.781,0,0,1,2.463-1.486Z" transform="translate(0 0)"/>
    <path id="路径_654" data-name="路径 654" class="cls-1" d="M361.426,364.452a3.026,3.026,0,1,1,3.026-3.026A3.03,3.03,0,0,1,361.426,364.452Zm0-5.043a2.017,2.017,0,1,0,2.017,2.017A2.019,2.019,0,0,0,361.426,359.409Z" transform="translate(-337.256 -337.256)"/>
  </g>
</svg>
