<svg xmlns="http://www.w3.org/2000/svg" viewBox="0 0 13.749 14">
  <defs>
    <style>
      .cls-1 {
        fill: #707070;
      }
    </style>
  </defs>
  <path id="xuesheng-copy" class="cls-1" d="M9.935,14a.292.292,0,0,1-.274-.392,7.238,7.238,0,0,1,2.472-3.349,6.694,6.694,0,0,1,1.638-.9l.5-.189-.458-.279A4.374,4.374,0,0,1,13,8.252a4.3,4.3,0,0,1-1.269-3.064c0-.015,0-.03,0-.045l0-.13-.1-.08a.716.716,0,0,1-.319-.559V2.56L10.2,2.245V5.889a.292.292,0,1,1-.584,0v-3.6l.008-.2-.2-.06-.244-.07L16.064,0l6.874,1.956-2.124.6V4.374a.716.716,0,0,1-.319.559l-.1.08,0,.145c0,.011,0,.021,0,.03a4.3,4.3,0,0,1-1.269,3.063,4.375,4.375,0,0,1-.822.646l-.459.279.5.19a6.694,6.694,0,0,1,1.626.893,7.238,7.238,0,0,1,2.473,3.349.292.292,0,1,1-.548.2,6.657,6.657,0,0,0-2.272-3.081,5.935,5.935,0,0,0-7.146,0,6.656,6.656,0,0,0-2.272,3.081A.293.293,0,0,1,9.935,14Zm2.412-8.323a3.749,3.749,0,0,0,7.434,0l.051-.39-.379.1a12.426,12.426,0,0,1-2.593.358h-.008c-.265.023-.53.035-.788.035s-.522-.012-.785-.035h-.008a12.442,12.442,0,0,1-2.6-.358l-.379-.1ZM11.9,4.253l.219.036a.292.292,0,0,1,.083.027,9.272,9.272,0,0,0,3.145.852h.013c.231.009.469.013.708.013s.476,0,.707-.013h.013a9.275,9.275,0,0,0,3.145-.852.293.293,0,0,1,.083-.027l.219-.036V2.925L16.143,4.072a.291.291,0,0,1-.158,0L11.9,2.925Zm-.575-2.3,4.742,1.349,4.742-1.349L16.064.607Z" transform="translate(-9.19)"/>
</svg>
